<svg width="40" height="40" viewBox="0 0 40 40" fill="none" xmlns="http://www.w3.org/2000/svg">
<g clip-path="url(#clip0_122_1555)">
<path fill-rule="evenodd" clip-rule="evenodd" d="M29.3106 9.38092L29.3283 14.2696C29.1473 14.3272 23.1417 14.2855 22.3987 14.2884C22.3848 14.6067 22.3625 16.7907 22.417 16.9417C24.0415 17.0467 31.8808 17.4946 31.8367 19.7096C31.797 21.7046 25.0611 22.2705 23.0947 22.3922C22.9332 22.4024 22.5431 22.4033 22.4193 22.4325L22.3996 31.9327C22.1737 31.9857 17.6081 31.9677 17.4907 31.9254L17.4892 22.4497C17.3845 22.4476 17.4324 22.4583 17.3837 22.4218C17.107 22.4641 16.2307 22.3751 15.9076 22.349C14.1079 22.2044 7.68295 21.6358 7.79402 19.6287C7.89899 17.7324 14.188 17.1412 16.0274 17.0125C16.4676 16.9818 17.049 16.9188 17.4791 16.9351L17.4846 14.2867L10.7597 14.2872C10.6258 14.2887 10.6347 14.2991 10.568 14.2562L10.5695 9.37744L29.31 9.38063L29.3106 9.38092ZM19.0955 0.0283808C16.0053 0.199724 13.5512 0.899011 11.146 2.06768C9.86802 2.68869 7.91146 3.94288 6.84315 4.93876C6.7634 5.01298 6.7489 5.0295 6.67553 5.08865C6.01871 5.6192 4.70767 7.07953 4.25558 7.67155C1.35134 11.4736 -0.205028 15.8734 0.021743 20.9273C0.153978 23.8766 0.932887 26.5813 2.06413 28.8551C2.74851 30.2311 3.59411 31.5436 4.51338 32.6528L5.37261 33.6469C5.48687 33.7676 5.58112 33.8502 5.68783 33.9667C7.34831 35.7828 10.2807 37.6826 12.4188 38.5124C15.2212 39.5999 17.8439 40.122 20.9459 39.9762C31.6755 39.4726 40.4604 30.4399 39.9813 19.1002C39.7853 14.4629 37.9047 9.9854 34.9262 6.6864C34.7163 6.45359 34.5243 6.26804 34.3225 6.04654C33.4592 5.09822 31.9173 3.89563 30.8765 3.21866C29.9228 2.59852 28.7483 1.94997 27.5942 1.49857C24.8822 0.438328 22.1009 -0.138033 19.0955 0.0286708V0.0283808Z" fill="#28A07D"/>
<path fill-rule="evenodd" clip-rule="evenodd" d="M17.4989 17.1736C17.5079 17.6639 17.4681 20.9928 17.5195 21.1513C18.8145 21.1911 19.9075 21.2198 21.1997 21.1815C21.4845 21.1731 22.1529 21.1838 22.3942 21.127L22.3968 17.1702C23.3218 17.198 24.3359 17.3151 25.2416 17.4265C26.5175 17.5836 30.4921 18.1324 31.0895 19.3646C31.3029 19.805 31.0057 20.0375 30.589 20.2665C26.8037 22.347 12.262 22.3383 8.87373 20.1662C7.91416 19.5513 8.85575 18.9129 9.54795 18.5748C11.0936 17.8202 14.2295 17.432 16.0483 17.2655C16.3212 17.2406 17.2875 17.1348 17.4992 17.1736H17.4989ZM10.5687 14.2562L17.5012 14.2672C17.5398 14.4107 17.5206 16.5254 17.5177 16.8498C17.5148 17.0153 17.5229 16.8901 17.4794 16.9353C17.0494 16.9191 16.4677 16.982 16.0278 17.0127C14.1884 17.1417 7.89937 17.7329 7.79439 19.629C7.68333 21.6361 14.1083 22.2046 15.908 22.3493C16.231 22.3754 17.1074 22.4644 17.384 22.4221L17.5099 22.4267L17.518 31.9158L22.3826 31.9184L22.3834 22.5146C22.3852 22.3618 22.3794 22.4801 22.4197 22.4325C22.5432 22.4032 22.9333 22.4021 23.0951 22.3922C25.0615 22.2704 31.7973 21.7045 31.8371 19.7096C31.8811 17.4946 24.0419 17.0467 22.4174 16.9417C22.3631 16.7907 22.3852 14.607 22.3991 14.2884C22.4797 14.2379 22.7015 14.2591 22.8309 14.2591C24.9435 14.2591 27.2497 14.2944 29.3107 14.2576V9.38088L10.5702 9.37769L10.5687 14.2565V14.2562Z" fill="white"/>
<path fill-rule="evenodd" clip-rule="evenodd" d="M17.4987 17.1738C17.287 17.1349 16.3208 17.2407 16.0479 17.2657C14.2291 17.4321 11.0932 17.8203 9.54753 18.5749C8.85532 18.913 7.91373 19.5511 8.8733 20.1663C12.2618 22.3384 26.8036 22.3471 30.5885 20.2666C31.0052 20.0376 31.3025 19.8051 31.089 19.3647C30.4917 18.1328 26.5168 17.5837 25.2411 17.4266C24.3355 17.315 23.3214 17.1981 22.3963 17.1703L22.3937 21.1271C22.1528 21.1839 21.484 21.1732 21.1993 21.1816C19.9071 21.2199 18.8141 21.1912 17.519 21.1515C17.468 20.9929 17.5074 17.664 17.4984 17.1738H17.4987Z" fill="#27A17B"/>
<path fill-rule="evenodd" clip-rule="evenodd" d="M22.4194 22.4326C22.3791 22.4798 22.3852 22.3618 22.3832 22.5146L22.3823 31.9185L17.5178 31.9158L17.5096 22.4268L17.3838 22.4221C17.4322 22.4586 17.3847 22.4479 17.4893 22.45L17.4908 31.9257C17.6082 31.968 22.1738 31.986 22.3997 31.9329L22.4194 22.4328V22.4326Z" fill="#99D2C1"/>
<path fill-rule="evenodd" clip-rule="evenodd" d="M17.4796 16.9355C17.5231 16.8903 17.5147 17.0155 17.5178 16.85C17.5205 16.5256 17.5396 14.4109 17.5013 14.2674L10.5688 14.2563C10.6355 14.2995 10.6263 14.2888 10.7605 14.2874L17.4854 14.2868L17.4799 16.9352L17.4796 16.9355Z" fill="#99D2C1"/>
<path fill-rule="evenodd" clip-rule="evenodd" d="M22.3989 14.2883C23.1419 14.2857 29.1475 14.3272 29.3285 14.2695L29.3108 9.38086V14.2576C27.2496 14.2944 24.9433 14.2591 22.831 14.2591C22.7017 14.2591 22.4798 14.2376 22.3992 14.2883H22.3989Z" fill="#93D1BE"/>
</g>
<defs>
<clipPath id="clip0_122_1555">
<rect width="40" height="40" fill="white"/>
</clipPath>
</defs>
</svg>
