<svg width="24" height="22" viewBox="0 0 24 22" fill="none" xmlns="http://www.w3.org/2000/svg">
<path d="M8.51441 16.1481V18.0305H0.970597V16.5332L4.82094 12.8967C5.22974 12.5069 5.50544 12.1742 5.64805 11.8985C5.79065 11.6133 5.86196 11.3328 5.86196 11.0571C5.86196 10.6578 5.7241 10.3536 5.4484 10.1445C5.1822 9.92579 4.78766 9.81646 4.26478 9.81646C3.82745 9.81646 3.43291 9.90202 3.08115 10.0731C2.72939 10.2348 2.43468 10.4819 2.197 10.8147L0.514261 9.7309C0.904048 9.15097 1.44119 8.69938 2.1257 8.37615C2.8102 8.0434 3.59453 7.87703 4.47869 7.87703C5.22023 7.87703 5.86671 8.00062 6.41812 8.2478C6.97903 8.48548 7.4116 8.82773 7.71582 9.27456C8.02955 9.71188 8.18642 10.23 8.18642 10.829C8.18642 11.3709 8.07234 11.8795 7.84417 12.3548C7.616 12.8302 7.17392 13.3721 6.51794 13.9805L4.222 16.1481H8.51441Z" fill="white"/>
<path d="M22.9714 12.1176V14H15.4276V12.5026L19.278 8.86621C19.6868 8.47643 19.9625 8.14368 20.1051 7.86798C20.2477 7.58277 20.319 7.30231 20.319 7.02661C20.319 6.62731 20.1811 6.32309 19.9054 6.11393C19.6392 5.89527 19.2447 5.78594 18.7218 5.78594C18.2845 5.78594 17.8899 5.8715 17.5382 6.04263C17.1864 6.20425 16.8917 6.45143 16.654 6.78418L14.9713 5.70038C15.3611 5.12045 15.8982 4.66887 16.5827 4.34563C17.2672 4.01288 18.0516 3.84651 18.9357 3.84651C19.6773 3.84651 20.3237 3.9701 20.8751 4.21728C21.4361 4.45496 21.8686 4.79721 22.1729 5.24404C22.4866 5.68136 22.6435 6.1995 22.6435 6.79844C22.6435 7.34034 22.5294 7.84896 22.3012 8.32431C22.073 8.79966 21.631 9.34156 20.975 9.95001L18.679 12.1176H22.9714Z" fill="white"/>
<path d="M14.4215 11.7209H12.8946V13.2128H11.7625V11.7209H10.2443V10.6503H11.7625V9.1584H12.8946V10.6503H14.4215V11.7209Z" fill="white"/>
</svg>
