<svg width="14" height="15" viewBox="0 0 14 15" fill="none" xmlns="http://www.w3.org/2000/svg">
<path fill-rule="evenodd" clip-rule="evenodd" d="M2.43735 2.54562C2.55938 3.3966 2.71149 4.20754 2.96185 4.99392C3.08167 5.37032 3.21845 5.72647 3.36607 6.08587C3.54832 6.52957 3.73633 6.78859 3.85817 7.0783C3.48898 6.96397 2.9047 6.50851 2.71823 6.31699L2.48136 6.07241C1.65763 5.1471 1.11082 3.79099 0.992689 2.52567C1.2287 2.52438 2.29879 2.49266 2.43735 2.54562ZM10.7124 6.04215C10.8575 5.69607 10.9922 5.33601 11.1071 4.96501C11.3421 4.20624 11.5287 3.35238 11.6231 2.52603L13.0073 2.52509C12.9048 3.5518 12.5568 4.49184 12.1065 5.2683C11.7224 5.93064 10.975 6.74241 10.2248 7.04413L10.7124 6.04215ZM11.752 0.5H2.30687L2.34484 1.63414L0 1.63963C0.010466 3.37438 0.461646 4.86407 1.44934 6.24303C1.6109 6.46861 1.96613 6.86139 2.16965 7.03877C2.79874 7.58705 3.61156 8.07547 4.52963 8.19293C4.72383 8.21778 4.69702 8.20681 4.79498 8.31821C4.90416 8.44239 5.0598 8.60628 5.21225 8.6774C5.10183 8.78295 5.14322 8.73226 5.14322 9.10339C5.14322 9.25309 5.12809 9.45623 5.14654 9.59796L6.08528 9.60359L6.08613 11.8263C5.92626 11.8278 5.24827 11.7909 5.15517 11.8545L5.13967 12.7043C4.87499 12.7508 4.45063 12.6652 4.21317 12.7275C4.16099 12.8939 4.19609 14.2136 4.19609 14.5L9.86348 14.4884C9.86348 14.212 9.82646 12.8864 9.87876 12.7238L8.92359 12.7131L8.91694 11.83L7.98021 11.8245L7.97374 9.60377L8.91936 9.6022C8.91906 9.47406 8.94045 8.78423 8.8988 8.73039C8.89634 8.7272 8.89122 8.72069 8.88834 8.71746L8.86198 8.69512C8.85926 8.69273 8.85163 8.68885 8.8471 8.68499C8.96329 8.63026 9.17111 8.39851 9.24733 8.33128C9.34302 8.24686 9.34024 8.2152 9.49446 8.19084C11.1741 7.92547 12.4489 6.68096 13.1387 5.29991C13.7466 4.08292 13.9784 2.99959 14 1.64038L11.7153 1.63968L11.752 0.5Z" fill="white"/>
</svg>
