<svg width="24" height="24" viewBox="0 0 24 24" fill="none" xmlns="http://www.w3.org/2000/svg">
<path fill-rule="evenodd" clip-rule="evenodd" d="M4.47765 6.15895C5.0523 6.1018 5.87399 6.1436 6.47955 6.14569L14.5863 6.14472C15.3055 6.14432 15.7179 6.16971 16.2952 6.46153C17.0658 6.8511 17.8347 7.72306 17.8824 8.90955C17.935 10.2198 17.8869 11.6324 17.8866 12.9538L17.8849 19.0185C17.8842 19.6835 17.8424 20.1933 17.5699 20.7169C17.1598 21.505 16.3391 22.2568 15.1205 22.3188C14.4714 22.3518 13.7498 22.3229 13.0929 22.3229L4.98623 22.3238C4.27318 22.3238 3.8251 22.2942 3.26744 22.0094C2.45766 21.5958 1.75005 20.7659 1.67452 19.5512C1.6354 18.9219 1.66658 18.1701 1.66947 17.5289L1.66886 9.44265C1.66802 8.7784 1.72042 8.24069 1.991 7.73111C2.24109 7.2601 2.54592 6.93368 2.9447 6.66158C3.40695 6.34619 3.80712 6.22563 4.47765 6.15893V6.15895ZM-0.000488281 7.66333V20.8434C0.0916339 21.0368 0.121973 22.4335 1.52488 23.3781C2.61515 24.1121 3.50188 23.9932 4.98603 23.9925L15.1459 23.9945C15.8251 23.9946 16.4145 24.0297 17.0307 23.8512C18.0453 23.5573 18.8358 22.8191 19.2282 21.9731C19.4794 21.4317 19.5559 20.9715 19.5609 20.2953C19.5659 19.6175 19.5862 18.9553 19.5864 18.2738C19.5865 17.9219 19.5568 17.6513 19.5568 17.2896C19.5569 16.9526 19.5567 16.6157 19.5568 16.2788C19.557 15.596 19.5571 14.9133 19.5568 14.2306L19.5573 8.16594C19.5574 7.48215 19.4602 7.00801 19.2066 6.45862C18.8381 5.66006 18.0489 4.9127 17.002 4.61173C16.3936 4.43684 15.7809 4.47908 15.1196 4.47868L4.93287 4.47672C3.4508 4.48127 2.61002 4.36008 1.51464 5.10169C0.0996608 6.05965 0.0890246 7.46395 -0.000488281 7.66337L-0.000488281 7.66333Z" fill="white"/>
<path fill-rule="evenodd" clip-rule="evenodd" d="M23.9999 16.3281V3.14988C23.9065 2.95245 23.9354 2.54186 23.6285 1.94087C23.4321 1.55613 23.2239 1.28831 22.9695 1.02892C22.5824 0.634141 22.0615 0.319431 21.48 0.14701L20.8616 0.00866843C20.8571 -0.000926397 20.8458 0.00361736 20.8384 0H7.63452C7.51144 0.0576131 7.19284 0.0831993 7.03639 0.125681C6.44292 0.286896 6.05825 0.526282 5.6161 0.894172C5.23914 1.20785 4.6474 2.00955 4.53613 2.74024L6.83658 2.74443C7.06553 2.43945 7.49727 2.07189 8.00637 1.86676C8.57153 1.63904 9.17804 1.66952 9.86646 1.66961L18.1332 1.66912C19.7347 1.67654 20.4879 1.58579 21.4496 2.49075C22.4432 3.42571 22.3338 4.51641 22.3336 5.71887V13.9647C22.3338 14.638 22.3873 15.2487 22.1756 15.8432C22.0006 16.3345 21.642 16.8421 21.3288 17.0665L21.3259 19.3983C21.858 19.2972 22.3534 18.9958 22.7512 18.6779C23.1437 18.3643 23.4566 17.9339 23.6833 17.453C23.9603 16.8656 23.9103 16.5262 23.9998 16.3281L23.9999 16.3281Z" fill="white"/>
</svg>
