<svg width="15" height="21" viewBox="0 0 15 21" fill="none" xmlns="http://www.w3.org/2000/svg">
<path d="M9.12731 14.5844L9.12728 14.5844C9.07257 14.6433 9.0268 14.6902 8.99085 14.7268C8.9903 14.7274 8.98975 14.7279 8.9892 14.7285C8.98934 14.7295 8.98949 14.7304 8.98964 14.7314L8.99022 14.7353C9.00586 14.8394 9.02888 14.9925 9.0493 15.2163L9.04932 15.2164C9.08535 15.6124 9.12284 15.9656 9.16499 16.3628L9.12731 14.5844ZM9.12731 14.5844C9.57282 14.1051 9.64088 13.5154 9.64088 13.002C9.64088 12.4488 9.37964 11.9308 9.02544 11.5589C8.6728 11.1886 8.16894 10.9023 7.61737 10.9023H7.38295C6.83138 10.9023 6.32752 11.1886 5.97488 11.5589C5.62068 11.9308 5.35944 12.4488 5.35944 13.002V13.2482C5.35944 13.8601 5.59617 14.2391 5.81619 14.4981C5.86031 14.55 5.90438 14.5979 5.93898 14.6355C5.9434 14.6403 5.94767 14.6449 5.95176 14.6494C5.97908 14.6791 5.99852 14.7007 6.01337 14.7181L5.8202 16.501C5.81892 16.5112 5.81704 16.5245 5.81478 16.5406C5.79793 16.6604 5.75988 16.931 5.78948 17.1713C5.80718 17.315 5.85476 17.5157 5.99874 17.687C6.161 17.8802 6.39142 17.9728 6.64085 17.9728C6.96833 17.9728 7.22362 17.9775 7.44803 17.9816C7.59683 17.9843 7.73205 17.9868 7.86573 17.9875C8.14671 17.989 8.43852 17.9848 8.66606 17.904C8.79922 17.8568 8.93665 17.7756 9.04278 17.6369C9.14574 17.5023 9.18744 17.3547 9.20497 17.23C9.23472 17.0184 9.20638 16.752 9.17925 16.4971C9.17826 16.4878 9.17728 16.4786 9.17631 16.4694L9.12731 14.5844ZM12.0269 3.13993L12.0268 3.13985C11.6843 2.57958 11.2207 2.02774 10.729 1.64111C9.90089 0.989974 8.74626 0.500169 7.77349 0.500169H7.43326C7.15471 0.501007 6.99755 0.506449 6.82511 0.530501C6.64771 0.555246 6.44132 0.601526 6.06978 0.697163L12.0269 3.13993ZM12.0269 3.13993C12.8644 4.50936 12.8624 5.77766 12.8597 7.55875C12.8595 7.66239 12.8594 7.76777 12.8594 7.875V8.375M12.0269 3.13993L12.8594 8.375M12.8594 8.375H13.3594M12.8594 8.375H13.3594M13.3594 8.375H14.5V19.3594C14.5 19.6161 14.3736 19.908 14.15 20.1428C13.9248 20.3792 13.6574 20.5 13.4375 20.5H1.5625C1.34267 20.5 1.0752 20.3792 0.850047 20.1428C0.626358 19.9079 0.5 19.616 0.5 19.3594V8.375H1.64064H2.14064M13.3594 8.375H2.14064M2.14064 8.375V7.875M2.14064 8.375V7.875M2.14064 7.875V6.60352C2.14064 4.77696 2.60272 3.31109 3.73478 2.1226L3.7348 2.12257M2.14064 7.875L3.7348 2.12257M3.7348 2.12257C4.32034 1.50776 5.28999 0.897923 6.06977 0.697167L3.7348 2.12257ZM7.56761 2.12927L7.53392 2.12466H7.49992C5.50061 2.12466 3.67968 3.89201 3.67965 6.02932C3.67965 6.02933 3.67965 6.02935 3.67965 6.02936L3.67949 7.87496L3.67945 8.375H4.17949H10.8202H11.3202V7.875V6.02936C11.3202 4.23032 10.0066 2.62748 8.34018 2.23708L8.31721 2.23169L8.29382 2.2285L7.56761 2.12927Z" fill="#A7B8C0" stroke="black"/>
</svg>
