<svg width="6" height="8" viewBox="0 0 6 8" fill="none" xmlns="http://www.w3.org/2000/svg">
<path d="M2.49494 5.0899C2.49494 4.74324 2.57161 4.45657 2.72494 4.2299C2.88494 4.00324 3.11494 3.75324 3.41494 3.4799C3.63494 3.2799 3.79494 3.11324 3.89494 2.9799C4.00161 2.8399 4.05494 2.68324 4.05494 2.5099C4.05494 2.26324 3.95494 2.0699 3.75494 1.9299C3.56161 1.78324 3.30161 1.7099 2.97494 1.7099C2.66161 1.7099 2.38161 1.77657 2.13494 1.9099C1.89494 2.03657 1.69161 2.21657 1.52494 2.4499L0.314941 1.7399C0.594941 1.31324 0.971608 0.983236 1.44494 0.749902C1.92494 0.516569 2.49161 0.399902 3.14494 0.399902C3.91161 0.399902 4.52494 0.563236 4.98494 0.889902C5.45161 1.21657 5.68494 1.6699 5.68494 2.2499C5.68494 2.52324 5.63827 2.76324 5.54494 2.9699C5.45827 3.17657 5.34827 3.35324 5.21494 3.4999C5.08827 3.6399 4.92161 3.80324 4.71494 3.9899C4.46828 4.2099 4.28827 4.39657 4.17494 4.5499C4.06161 4.69657 4.00494 4.87657 4.00494 5.0899H2.49494ZM3.25494 7.5999C2.98161 7.5999 2.75161 7.51324 2.56494 7.3399C2.38494 7.1599 2.29494 6.94324 2.29494 6.6899C2.29494 6.43657 2.38494 6.22657 2.56494 6.0599C2.74494 5.88657 2.97494 5.7999 3.25494 5.7999C3.53494 5.7999 3.76494 5.88657 3.94494 6.0599C4.12494 6.22657 4.21494 6.43657 4.21494 6.6899C4.21494 6.94324 4.12161 7.1599 3.93494 7.3399C3.75494 7.51324 3.52827 7.5999 3.25494 7.5999Z" fill="white"/>
</svg>
