<svg width="25" height="21" viewBox="0 0 25 21" fill="none" xmlns="http://www.w3.org/2000/svg">
<path fill-rule="evenodd" clip-rule="evenodd" d="M0 9.68262C0 10.3077 0.877881 10.5084 1.34983 10.6483L2.22002 10.9186C2.7905 11.1113 3.38777 11.2712 3.95529 11.4641C4.38527 11.6104 4.82312 11.732 5.25586 11.8743L6.12546 12.145C6.17472 12.1613 6.55169 12.2782 6.56253 12.2782C6.62953 12.2782 7.65087 11.5989 7.84418 11.4828L8.70038 10.9436C8.84561 10.8493 8.98493 10.7727 9.13075 10.6763C9.54772 10.4004 9.98262 10.143 10.402 9.87035L16.8124 5.83168C16.9552 5.74118 17.0841 5.65664 17.2313 5.56873C18.0477 5.08133 18.9626 4.46435 19.8007 3.95235C19.9782 3.8438 20.1747 3.77434 20.4145 3.77434C20.5475 3.77434 20.6201 3.843 20.6201 3.94957C20.6201 4.09801 20.4403 4.21371 20.3475 4.29606C20.3056 4.33337 20.2793 4.37029 20.236 4.4066L19.4683 5.0984C19.4147 5.14147 19.4003 5.15794 19.3514 5.20378L19.1315 5.39628C19.0903 5.42942 19.0669 5.46276 19.0271 5.49808C18.777 5.71995 18.4897 5.96722 18.2526 6.19921C18.2097 6.24128 18.1846 6.25061 18.1415 6.29427C18.0936 6.34249 18.0709 6.35579 18.0233 6.39825L17.4778 6.89994C17.3369 7.03667 17.1734 7.15753 17.0346 7.29744C16.8959 7.43734 16.7298 7.55364 16.592 7.69573C16.5465 7.74256 16.5304 7.75129 16.4821 7.79197L15.269 8.89536C15.216 8.93664 15.2067 8.95132 15.1612 8.99379L14.3862 9.69433C14.2341 9.8511 13.9884 10.0422 13.8246 10.1956C13.7791 10.2383 13.7698 10.2528 13.7168 10.294L13.0506 10.8971C12.8697 11.0495 12.6856 11.244 12.5035 11.3974C12.4553 11.4381 12.4391 11.4468 12.3936 11.4937L11.3945 12.3986C11.3425 12.4391 11.3311 12.453 11.2869 12.4972C11.2438 12.5405 11.2185 12.5502 11.1756 12.5921C11.1289 12.6377 11.1173 12.6491 11.0668 12.6895C11.0227 12.7251 10.9984 12.7612 10.9539 12.7987L9.9503 13.6991C9.85434 13.7886 9.79305 13.8086 9.78813 13.9499C9.7761 14.2968 9.74142 14.6111 9.72507 14.9533L9.6626 15.7346C9.64152 16.0049 9.62713 16.2599 9.61432 16.53C9.609 16.6407 9.58339 16.7983 9.5824 16.912C9.57925 17.3105 9.50653 17.7086 9.50397 18.1071L9.42219 19.2988C9.40978 19.4125 9.39283 19.5726 9.39283 19.6992C9.68802 19.6992 9.93493 19.6387 10.171 19.4795C10.3724 19.3436 10.562 19.1352 10.7328 18.9624C10.7789 18.9157 10.8069 18.903 10.8518 18.8594L11.7449 17.9912C11.7853 17.9505 11.814 17.9191 11.8552 17.8794L12.417 17.3462C12.4941 17.2684 12.5609 17.2174 12.6383 17.1392C12.714 17.0628 12.7818 16.9884 12.8594 16.916C12.9046 16.8739 12.9319 16.8602 12.9784 16.8128C13.0805 16.7088 13.1976 16.5609 13.3144 16.4821C13.3785 16.4972 13.4658 16.5772 13.5263 16.6191C13.5982 16.6691 13.6595 16.7189 13.7255 16.7689L14.7309 17.5081C14.7679 17.5351 14.7951 17.5577 14.83 17.5835C14.8666 17.6105 14.8942 17.6274 14.9319 17.656C15.2885 17.9265 15.7607 18.2863 16.1355 18.546L18.456 20.2539C18.4909 20.2797 18.5179 20.3023 18.5551 20.3293C18.6954 20.4309 18.8217 20.5224 18.9573 20.625C19.0379 20.6859 19.0726 20.7119 19.1703 20.7607C19.5934 20.9719 20.145 21.1438 20.5637 20.8209C21.0573 20.4404 21.1235 19.8324 21.2682 19.2212C21.4179 18.5885 21.5269 17.9586 21.6731 17.32L21.9443 16.0483C21.9914 15.8274 22.0268 15.6197 22.0777 15.4026C22.1252 15.1999 22.1632 14.9842 22.2103 14.7717L22.8878 11.5842C22.9353 11.3694 22.9802 11.1639 23.022 10.9549C23.0643 10.7425 23.114 10.5435 23.1565 10.326C23.3654 9.26289 23.6165 8.21428 23.8257 7.14622C23.8687 6.92693 23.9148 6.72451 23.9631 6.50423C24.289 5.01446 24.6067 3.54116 24.9036 2.05297C24.9604 1.76879 25 1.52966 25 1.21035C25 0.508233 24.5706 0 23.8931 0C23.5211 0 23.0269 0.232188 22.6915 0.36634L21.5588 0.802138C21.4262 0.849568 21.3135 0.894815 21.1801 0.946214C21.0469 0.997613 20.9361 1.04048 20.8029 1.09188L19.671 1.52847C19.5459 1.57868 19.4241 1.62591 19.2941 1.67433C18.7898 1.86187 18.2759 2.07619 17.7718 2.25936L14.3649 3.5739C14.2317 3.6253 14.121 3.66817 13.9878 3.71956C13.73 3.81899 13.4796 3.91107 13.2332 4.01069C13.1063 4.06189 12.9804 4.10654 12.8561 4.15635C12.73 4.20696 12.609 4.2534 12.4787 4.30182C11.7165 4.58541 10.963 4.89439 10.2017 5.17758L8.68363 5.76678C8.18922 5.96682 7.68042 6.15098 7.17242 6.34686L3.95923 7.58578C3.51172 7.74633 3.06992 7.93665 2.62261 8.10295L1.86828 8.39427C1.62236 8.4939 1.37052 8.58538 1.11612 8.68778C0.87591 8.78443 0.63373 8.89139 0.429186 9.04698C0.262675 9.17359 0.000197055 9.40002 0.000197055 9.68182L0 9.68262Z" fill="white"/>
</svg>
