<svg width="25" height="29" viewBox="0 0 25 29" fill="none" xmlns="http://www.w3.org/2000/svg">
<mask id="mask0_84_3699" style="mask-type:luminance" maskUnits="userSpaceOnUse" x="2" y="2" width="21" height="25">
<path d="M22.1741 2.5H2.82617V26.5H22.1741V2.5Z" fill="white"/>
</mask>
<g mask="url(#mask0_84_3699)">
<path fill-rule="evenodd" clip-rule="evenodd" d="M16.26 11.1986C17.8188 11.0895 19.972 9.91079 20.9038 8.56679C22.1619 6.75192 22.2546 5.08548 22.1352 2.50049C21.3948 2.86972 20.0779 4.63007 16.8195 4.64926L2.82568 4.67484L2.84975 11.2541C3.85896 11.378 16.0051 11.312 16.26 11.1986ZM15.7061 12.4153C15.593 12.2588 15.8106 12.2922 15.3427 12.281L2.82634 12.313L2.83854 18.8707C3.5019 18.9761 9.66927 18.9162 10.0214 18.7829C11.5245 18.5856 13.5017 17.4103 14.0463 16.7314C14.5231 16.1373 14.8544 15.7051 15.2152 14.8451C15.5212 14.1157 15.7047 13.2821 15.7061 12.4153ZM3.44189 23.4372C3.51575 25.1868 5.00698 26.5651 6.81242 26.4975C8.5351 26.4328 9.97094 24.9091 9.86742 23.0495C9.76818 21.2699 8.29673 19.8041 6.43755 19.9367C4.68684 20.0616 3.36145 21.5304 3.44189 23.4372Z" fill="white"/>
</g>
</svg>
