<svg width="25" height="27" viewBox="0 0 25 27" fill="none" xmlns="http://www.w3.org/2000/svg">
<path fill-rule="evenodd" clip-rule="evenodd" d="M4.64281 20.1574L5.8789 19.6183C6.10182 19.5286 6.30862 19.4565 6.53817 19.3798C6.65747 19.3399 7.13025 19.1871 7.23465 19.1784L7.62211 20.1373C7.96033 20.8897 8.48155 21.9031 8.95773 22.5552C8.99729 22.6093 9.07686 22.7118 9.09185 22.7678L8.43005 22.5522C7.03447 22.017 6.23498 21.5459 5.10608 20.5917L4.8727 20.3763C4.78869 20.2918 4.70895 20.2559 4.64281 20.1573V20.1574ZM1.90813 14.0594H6.27542C6.27542 14.5706 6.33791 15.0676 6.39612 15.5703C6.44832 16.0212 6.54017 16.5517 6.62741 16.9911C6.65625 17.1362 6.69425 17.2902 6.72606 17.4432C6.75142 17.5652 6.82375 17.7732 6.82645 17.8935C6.63734 17.9093 5.66086 18.2764 5.43567 18.3595C4.95828 18.5358 4.41727 18.7975 3.96306 19.0293C3.8726 19.0753 3.84672 19.0731 3.74484 19.0967C3.69377 19.0003 3.63582 18.9341 3.57333 18.8398C3.14387 18.192 2.8196 17.6096 2.53463 16.8798C2.25445 16.1623 1.90804 14.8749 1.90804 14.0592L1.90813 14.0594ZM6.27542 12.693H1.90813C1.90813 11.6837 2.4331 9.82361 2.92749 8.98006L3.56924 7.88786C3.62257 7.80765 3.72175 7.70114 3.74484 7.61466C3.7743 7.62877 3.79835 7.63591 3.82955 7.65237L4.47296 7.96799C4.71697 8.09069 4.96368 8.19163 5.22591 8.29649L6.82645 8.85883L6.62732 9.74078C6.44065 10.6116 6.27542 11.7729 6.27542 12.693V12.693ZM11.4999 3.65809C12.2339 3.65809 12.0055 3.55489 12.5973 4.2746C12.6656 4.35768 12.7187 4.4324 12.7826 4.51758C13.0355 4.85444 13.2604 5.1859 13.4806 5.5536C13.6405 5.82061 13.9901 6.43582 14.0888 6.67932C14.1337 6.79027 14.1744 6.85759 14.2227 6.97377C14.2658 7.07749 14.3147 7.17416 14.3542 7.27066L14.6018 7.90014L13.9574 8.01075C12.4197 8.24754 10.3976 8.26731 8.86884 7.95962C8.78221 7.94221 8.62613 7.90728 8.54064 7.90014L8.79894 7.26099C9.20871 6.34045 9.49124 5.78395 10.0599 4.9316L10.6338 4.15912C11.0215 3.66619 10.9933 3.65809 11.4998 3.65809H11.4999ZM14.0714 3.98441C14.1864 3.99399 14.6219 4.13752 14.7526 4.18063C14.9729 4.25335 15.1766 4.33687 15.3862 4.42439C16.5203 4.89816 17.2886 5.45789 18.1684 6.23281C18.2184 6.27688 18.2406 6.28454 18.2911 6.33453C18.3555 6.39819 18.4765 6.48694 18.4999 6.57455L18.2075 6.71058C18.096 6.76223 18.0099 6.80116 17.8963 6.84827L17.2638 7.11355C17.1563 7.15683 17.0591 7.19445 16.9517 7.22981C16.6085 7.34268 16.2807 7.4714 15.9285 7.55335C15.913 7.48725 15.8685 7.38509 15.8409 7.31455L15.5466 6.58892C15.4764 6.42658 15.3974 6.28768 15.3307 6.13161C15.2579 5.96135 15.1922 5.82166 15.1003 5.66838C14.9482 5.41452 14.7998 5.11231 14.6138 4.80863L14.0714 3.98424V3.98441ZM7.23465 7.5739C7.15204 7.56702 6.9936 7.50745 6.89931 7.48072C6.55299 7.38283 5.90365 7.14986 5.57589 7.00852L4.95575 6.73088C4.87296 6.68916 4.73457 6.60251 4.64289 6.59484C4.7391 6.45132 5.36334 5.91319 5.56125 5.75869C6.50915 5.01869 7.29836 4.59134 8.40042 4.19073C8.51319 4.14971 8.61716 4.11827 8.73698 4.07838C8.82805 4.04808 9.00017 3.9919 9.09185 3.98433C8.9701 4.21416 8.51911 4.80811 8.30944 5.22152C8.2283 5.38142 8.14612 5.50683 8.06455 5.6703C7.90856 5.98295 7.76625 6.27635 7.62272 6.59519L7.23465 7.57382V7.5739ZM0.5 13.0805C0.5 14.225 0.567539 15.0305 0.838567 16.1073C0.866018 16.2164 0.895997 16.3316 0.925976 16.4278C1.11116 17.0205 1.3164 17.6113 1.59518 18.1655C2.07458 19.1185 2.65663 20.021 3.38231 20.8052L3.67861 21.1209C3.81403 21.2747 4.38712 21.7641 4.53544 21.8962L5.09989 22.3314C5.67158 22.7258 6.24405 23.0941 6.88737 23.38C6.97434 23.4187 7.05966 23.4607 7.15265 23.5024L8.03309 23.8463C8.23684 23.9138 8.4433 23.9819 8.6589 24.0367C9.32374 24.2057 10.0314 24.3661 10.7245 24.3996C10.9613 24.411 11.2572 24.4005 11.4994 24.4215C12.0774 24.4717 13.1124 24.3412 13.6922 24.2245C14.0404 24.1544 14.3474 24.0909 14.676 23.984C14.7733 23.9523 14.9174 23.9402 14.9694 23.8693C14.5372 23.7687 14.1025 23.2786 13.9149 22.904C13.8563 22.7868 13.8085 22.6632 13.7677 22.5412C13.7224 22.4057 13.6801 22.3 13.6352 22.1639L13.4415 21.6028C13.4143 21.5283 13.3851 21.4908 13.3777 21.4015C13.3012 21.4219 13.1139 21.7562 13.0675 21.8257C12.7539 22.296 12.2969 22.7985 12.1124 23.0739L11.1124 23.0943C11.0482 23.0943 10.7568 22.7071 10.7157 22.6544L10.4451 22.3131C10.4074 22.2667 10.3877 22.2304 10.3517 22.1821C10.024 21.7429 9.71399 21.2657 9.45264 20.776C9.42013 20.7152 9.4034 20.6981 9.37063 20.6335C9.27294 20.4412 9.18579 20.2626 9.09202 20.0758C8.99799 19.8883 8.92348 19.6986 8.83372 19.4978C8.78422 19.3872 8.61097 18.9769 8.60225 18.8725C9.3756 18.6925 10.4978 18.5869 11.3165 18.5869H12.1941C12.3074 18.5869 12.3152 18.6073 12.4186 18.6073C12.4135 18.3752 12.0477 17.5554 11.9696 17.2205C11.7996 17.2205 11.6295 17.2205 11.4595 17.2205C11.1401 17.2205 10.7955 17.2622 10.4794 17.2608C10.1748 17.2595 9.41307 17.3652 9.07747 17.4098C8.81123 17.4452 8.45541 17.5063 8.19414 17.5672C8.06647 17.0197 7.93418 16.4647 7.8412 15.9008C7.74446 15.3143 7.6635 14.6676 7.6635 14.0593H10.8676C10.7675 13.63 10.5206 13.2986 10.5206 12.6929H7.60224C7.62716 12.3939 7.63021 12.0603 7.66908 11.7603C7.70708 11.4666 7.74568 11.1463 7.78481 10.8562C7.85157 10.3613 7.94508 9.87673 8.08486 9.40209C8.10717 9.32641 8.13096 9.27146 8.13288 9.18498C8.28643 9.18837 8.75703 9.29201 8.93454 9.32197C9.7634 9.46201 10.718 9.53168 11.5818 9.53168C12.6362 9.53168 13.6262 9.43728 14.6375 9.26101C14.755 9.24054 14.9221 9.19569 15.0511 9.18498C15.0667 9.37091 15.1445 9.57697 15.1901 9.75994C15.2899 10.1604 15.5001 11.266 15.5001 11.6528C15.7961 11.7216 16.6156 12.0741 16.9083 12.1422C16.9083 11.2245 16.5774 9.71501 16.3777 8.85865C16.6642 8.79194 16.9332 8.70651 17.2026 8.60209C18.1029 8.25338 18.5039 8.1197 19.4593 7.61457C19.5625 7.80948 19.8272 8.16376 19.9658 8.39324C20.4904 9.26196 20.8545 10.1911 21.0879 11.1877C21.168 11.5296 21.2511 11.9254 21.2749 12.2856C21.2828 12.4035 21.293 12.5921 21.3164 12.6929H18.5614C18.5826 12.7113 18.5596 12.7007 18.6108 12.7251C18.8244 12.8271 19.3506 12.9859 19.5794 13.0624C19.6653 13.091 19.7361 13.1219 19.8343 13.1544C19.9283 13.1854 20.0122 13.2113 20.0945 13.241L22.1504 13.9601C22.312 14.0136 22.4954 14.1018 22.6634 14.1409C22.6687 14.0772 22.6838 14.0684 22.6838 13.9982C22.6838 12.6589 22.6818 11.9506 22.3531 10.6372C22.0912 9.59012 21.7115 8.65721 21.1725 7.75853C20.5757 6.76362 20.03 6.11959 19.2195 5.30496C18.9398 5.02383 18.6203 4.76822 18.3018 4.52925C17.6617 4.04912 16.9205 3.56821 16.1822 3.26201C16.1013 3.22839 16.0386 3.19843 15.9561 3.16168C15.8689 3.12284 15.7996 3.09662 15.7101 3.06083C15.5436 2.9942 15.3972 2.93315 15.2222 2.87533C13.1721 2.19873 11.1224 2.07454 9.00609 2.57295C8.00922 2.80775 6.96911 3.21445 6.10052 3.72785C5.4063 4.13821 4.73013 4.60406 4.1377 5.15177C4.07522 5.20942 4.02511 5.26446 3.96463 5.32551C3.89674 5.39414 3.8475 5.42096 3.78048 5.48819L2.83563 6.56305L1.89192 7.98566C1.66908 8.35196 1.50272 8.74143 1.33121 9.13847C0.828022 10.3036 0.500174 11.8025 0.500174 13.0803L0.5 13.0805Z" fill="white"/>
<path fill-rule="evenodd" clip-rule="evenodd" d="M12.0303 12.7137C12.0303 12.9432 12.3549 13.756 12.4461 14.0317C12.7502 14.9507 13.1152 15.9114 13.4206 16.8308C13.9337 18.3751 14.5202 19.998 15.0586 21.5367C15.1345 21.7538 15.2 21.9557 15.2723 22.1592C15.4239 22.5855 15.8763 22.6158 16.097 22.3658C16.1742 22.2784 16.2256 22.1534 16.282 22.0408L16.9555 20.7152C17.0715 20.4835 17.1777 20.258 17.2956 20.0354C17.3942 20.1013 21.3321 24.0547 21.7905 24.5172C22.253 24.9837 22.5016 24.5917 22.8518 24.2418L24.2803 22.8142C24.4364 22.6583 24.4997 22.6299 24.4997 22.3808C24.4997 22.1303 24.1414 21.8494 23.9946 21.7027L19.964 17.6747C19.91 17.6209 19.8473 17.5853 19.8262 17.5065C19.9229 17.484 20.396 17.2369 20.4958 17.1762C20.8076 16.9865 21.9748 16.4729 22.1474 16.3182C22.3134 16.1695 22.3597 15.8619 22.1679 15.6353C22.0516 15.498 21.4123 15.312 21.2112 15.2454L17.8644 14.0828C16.7623 13.7171 15.6085 13.2813 14.5023 12.9151L13.1708 12.451C12.8164 12.3326 12.4488 12.1204 12.1776 12.3918C12.1135 12.4559 12.0303 12.5916 12.0303 12.7137V12.7137Z" fill="white"/>
</svg>
